JK_SCALED_curve_Exp_kinematics.mot																																	
version=1																																	
nRows=43																																	
nColumns=34																																	
inDegrees=yes																																	
endheader																																	
time	pelvis_rotation	pelvis_obliquity	pelvis_tilt	pelvis_tx	pelvis_ty	pelvis_tz	hip_flexion_r	hip_adduction_r	hip_rotation_r	knee_angle_r	ankle_angle_r	subtalar_angle_r	mtp_angle_r	hip_flexion_l	hip_adduction_l	hip_rotation_l	knee_angle_l	ankle_angle_l	subtalar_angle_l	mtp_angle_l	lumbar_extension	lumbar_bending	lumbar_rotation	arm_flex_r	arm_add_r	arm_rot_r	elbow_flex_r	pro_sup_r	arm_flex_l	arm_add_l	arm_rot_l	elbow_flex_l	pro_sup_l
0	-27.56673	-16.13338	1.5695	0.63119	0.9878	0.47123	25.10325	0.01427	3.75681	-21.08263	9.6686	0	0	-14.12686	2.2996	6.7127	-65.08612	-12.36692	0	0	-22.67996	6.12582	-1.4988	-22.95556	-19.28639	-20.08017	71.67433	116.81388	-16.14264	-17.21437	1.29667	83.98789	125.68514
0.01466	-28.12495	-16.24824	3.20778	0.66445	0.97846	0.4951	23.88648	0.51714	5.08222	-25.18213	7.46158	0	0	-11.68269	2.33536	4.68419	-73.58973	-11.07104	0	0	-24.11495	5.97873	1.05339	-21.0065	-21.53997	-20.23042	74.12642	116.13967	-16.81722	-15.92434	0.37459	79.93877	125.51403
0.02932	-28.34369	-17.39735	4.935	0.69674	0.96895	0.51793	22.83575	2.063	5.30015	-30.26821	8.23595	0	0	-9.06117	0.74844	2.74609	-81.89701	-8.95516	0	0	-25.92508	6.93842	4.00737	-18.80969	-24.1214	-20.32189	76.70192	114.72153	-17.06113	-14.62598	-0.40975	75.38111	125.19384
0.04397	-28.1149	-18.57492	6.59155	0.7279	0.95965	0.539	22.3819	3.46304	4.71643	-36.75281	12.20161	0	0	-6.01068	-1.09236	1.58242	-89.76895	-6.79051	0	0	-27.94711	7.95117	6.93077	-16.25892	-26.88643	-20.40581	79.1025	114.06687	-16.80482	-13.40851	-1.28535	70.40321	124.90815
0.05863	-27.47229	-19.66883	7.61776	0.7589	0.95098	0.55777	22.32448	4.14688	2.92675	-42.89119	15.54382	0	0	-1.9154	-2.74872	1.2515	-96.90273	-4.67582	0	0	-29.49408	8.96516	9.80519	-13.45474	-29.76086	-20.49208	81.02638	113.34253	-16.1747	-12.24241	-1.95845	65.28666	124.66668
0.07329	-27.0847	-20.49443	7.32594	0.79139	0.94311	0.57639	22.36555	4.46591	1.45195	-46.91199	19.00043	0	0	3.82228	-4.09947	0.90594	-102.73679	-2.81949	0	0	-29.36787	9.59903	12.90321	-10.70038	-32.45845	-20.34839	82.2356	112.50773	-15.89258	-11.18006	-2.53312	60.54433	124.53439
0.08795	-26.0904	-21.20285	7.04408	0.8251	0.93901	0.59339	20.45214	4.63551	0.0715	-48.11925	22.3391	0	0	9.547	-5.29343	1.19478	-106.90025	-1.59184	0	0	-29.37392	10.0721	15.45341	-8.08585	-34.79105	-20.01985	83.27771	112.08555	-16.27791	-10.55488	-3.13506	57.83095	123.98489
0.10261	-24.97056	-21.11292	7.27381	0.86075	0.93882	0.61074	16.91966	4.42736	-0.37553	-47.83023	25.43188	0	0	14.32412	-5.66064	1.33597	-108.97045	-0.464	0	0	-29.57547	9.45813	17.71806	-6.18221	-36.20751	-19.86809	84.38632	111.58213	-17.4999	-10.64369	-3.512	57.63151	122.90758
0.11727	-23.9441	-19.97934	7.14526	0.89753	0.94117	0.62808	13.22533	3.42036	-0.1632	-46.58143	27.98483	0	0	19.08209	-4.92484	0.78728	-109.13448	0.91301	0	0	-29.09336	7.60487	19.79053	-5.12895	-36.83142	-19.83138	85.64932	110.77237	-19.0835	-11.32509	-3.57574	59.20544	121.57668
0.13192	-23.46422	-18.50519	6.91186	0.93559	0.94682	0.64383	9.44845	2.18558	0.60759	-44.39456	29.13204	0	0	23.52432	-3.91476	-0.66173	-107.44161	2.15963	0	0	-28.29186	5.34858	22.30844	-4.85097	-37.1005	-19.89905	87.07117	109.76262	-20.51064	-12.05478	-3.26528	61.24084	120.4834
0.14658	-22.81321	-17.05548	6.31386	0.97545	0.95483	0.65812	5.50273	0.8878	1.25545	-41.11624	28.77596	0	0	27.63374	-2.8355	-2.14793	-104.10912	3.31797	0	0	-27.07703	3.23495	24.60669	-5.08495	-36.88788	-19.87514	88.51297	108.9248	-21.8391	-12.8591	-2.83039	63.43292	120.04253
0.16124	-21.68235	-15.3187	5.57927	1.01763	0.96469	0.67117	0.99022	-0.82054	1.49506	-36.81324	27.22294	0	0	30.88964	-1.24731	-3.64209	-99.20914	4.33154	0	0	-25.72821	0.95936	26.24715	-5.72186	-36.13366	-19.64342	89.92617	108.48405	-23.03752	-13.80854	-2.37394	65.51337	119.94735
0.1759	-20.08754	-13.45197	4.99394	1.06166	0.97615	0.68258	-4.03936	-2.71932	1.07536	-32.03905	24.1258	0	0	32.98451	0.78788	-5.02862	-92.87756	5.06308	0	0	-24.68756	-1.34717	27.13271	-6.32033	-35.0247	-19.04958	91.17478	108.65388	-24.19748	-14.68381	-2.1082	67.50447	120.12229
0.19056	-17.93685	-11.51131	4.62056	1.10712	0.98844	0.69232	-9.2654	-4.73039	-0.64249	-27.44062	19.215	0	0	33.89834	3.27693	-6.17796	-85.27944	5.50932	0	0	-24.09005	-3.64269	27.0785	-6.6749	-33.72745	-17.98797	92.12481	109.82897	-25.44578	-15.30935	-2.31355	69.4855	120.34164
0.20522	-15.3712	-9.55077	4.13615	1.15365	0.99999	0.70088	-13.98028	-6.74337	-4.1586	-23.53128	12.39594	0	0	34.06705	6.09099	-7.12956	-76.63409	5.97959	0	0	-23.50488	-5.90441	26.23943	-6.85409	-32.23008	-16.66146	92.74102	111.81736	-26.86677	-15.69935	-2.95567	71.39343	120.38478
0.21987	-12.60886	-8.19748	3.5469	1.20069	1.00998	0.7084	-17.97119	-7.98806	-8.93541	-20.52082	3.757	0	0	33.63275	8.51779	-7.59506	-67.30574	6.66678	0	0	-22.85067	-7.4616	25.11044	-7.04847	-30.82798	-15.08672	93.16602	113.66667	-28.35924	-15.82181	-3.66869	73.08406	119.68387
0.23453	-10.25689	-8.12302	3.04272	1.24748	1.01867	0.71572	-21.20732	-7.80065	-12.39423	-18.36604	-5.24985	0	0	32.59961	9.51149	-7.78757	-57.65945	7.5889	0	0	-22.16303	-7.72092	24.58428	-7.39129	-29.70805	-13.51651	93.42889	115.00152	-29.57127	-15.54971	-4.31556	74.14488	118.87166
0.24919	-8.49549	-9.02501	2.6921	1.29393	1.02537	0.72321	-23.78467	-6.61461	-12.98774	-17.199	-11.79043	0	0	31.10135	9.30815	-8.06192	-48.0114	8.62369	0	0	-21.43377	-7.03039	24.71139	-7.82375	-28.94251	-11.91718	93.50361	116.27197	-30.66396	-14.94335	-5.01923	74.97436	118.07576
0.26385	-7.58694	-10.7709	2.52839	1.33954	1.02974	0.73125	-25.37774	-4.80087	-10.16037	-17.85353	-15.41718	0	0	29.42977	7.90806	-8.84725	-38.81202	9.81797	0	0	-20.6755	-5.56022	25.68481	-8.30034	-28.50135	-10.42876	93.43675	117.33115	-31.53791	-14.0091	-5.76179	75.56839	117.40076
0.27851	-7.42189	-12.68756	2.39947	1.3843	1.03141	0.73983	-25.67202	-3.05197	-5.14033	-20.97701	-15.99749	0	0	27.89518	6.09474	-10.37367	-30.36988	10.95263	0	0	-19.76136	-3.97986	27.13518	-8.76956	-28.22026	-8.96928	93.10807	118.04776	-32.18832	-12.85033	-6.64711	75.8872	116.93331
0.29317	-7.48572	-14.30973	2.3873	1.42873	1.03065	0.74835	-25.03216	-1.79363	-0.95525	-26.22619	-14.88025	0	0	26.3256	4.62282	-12.54651	-22.94856	11.73716	0	0	-18.91725	-2.65434	28.38219	-9.16583	-27.91253	-7.5233	92.46897	118.46815	-32.6727	-11.62447	-7.64542	75.99845	116.59648
0.30782	-7.41206	-15.34723	2.59354	1.47283	1.02773	0.75632	-23.93546	-1.3429	1.1609	-32.84314	-13.2106	0	0	24.58059	3.99793	-15.15832	-16.92737	12.14748	0	0	-18.39333	-1.8372	29.03206	-9.44085	-27.49697	-6.18584	91.47226	118.74595	-32.89809	-10.39481	-8.72129	75.9492	116.22135
0.32248	-7.32723	-15.94106	3.19701	1.51648	1.02318	0.76377	-22.70618	-1.60783	2.02841	-40.26471	-11.53665	0	0	22.73125	3.97739	-17.48404	-13.0361	12.38762	0	0	-18.36878	-1.44384	29.21291	-9.54454	-27.03551	-4.90997	90.1162	119.04766	-32.86508	-9.13664	-9.78689	75.7301	115.73351
0.33714	-7.06937	-16.34403	4.1252	1.55921	1.01716	0.77074	-21.36551	-2.14725	2.38626	-48.18711	-10.07345	0	0	21.16186	4.16121	-17.97434	-12.01903	12.33763	0	0	-18.88348	-1.2119	29.01289	-9.63824	-26.52706	-3.96691	88.54885	119.30108	-32.42238	-8.02837	-10.60861	75.32639	115.09623
0.3518	-6.49121	-16.7031	4.92256	1.60088	1.00866	0.77711	-19.53122	-2.70282	2.52511	-56.42742	-8.73833	0	0	20.32478	4.44628	-16.18342	-13.78048	11.93962	0	0	-19.46411	-0.94956	28.35079	-9.82973	-26.02519	-3.36904	86.82002	119.66155	-31.68371	-6.99812	-11.30563	74.85426	114.25983
0.36646	-5.20753	-16.73027	5.37188	1.6421	0.99725	0.78234	-17.37981	-3.64247	1.94213	-64.57343	-7.22349	0	0	19.86245	5.53145	-13.06341	-16.98568	9.41763	0	0	-19.94016	-0.87873	26.95414	-10.32032	-25.40262	-3.27169	85.04078	120.05931	-30.66819	-6.31421	-11.65828	74.42102	113.21234
0.38112	-3.49146	-15.95149	5.75186	1.68276	0.9837	0.78632	-15.19618	-5.73047	0.81315	-72.39789	-5.50471	0	0	19.1351	7.81757	-10.26725	-20.24696	5.95621	0	0	-20.55177	-1.56495	24.96729	-11.03709	-24.71748	-3.55202	83.14005	120.32324	-29.35316	-5.99101	-11.65451	74.09071	112.01676
0.39577	-1.24324	-13.86742	6.18593	1.72166	0.96961	0.78929	-13.04075	-9.36174	-0.6062	-79.90776	-3.91188	0	0	18.28112	11.46984	-8.53162	-23.84888	4.37379	0	0	-21.67117	-3.64814	22.14974	-11.60038	-23.79829	-4.08276	80.89358	120.33345	-27.47876	-6.08472	-11.38533	73.89235	110.66557
0.41043	1.66427	-10.74148	6.59277	1.75772	0.95658	0.79155	-10.65155	-14.02377	-1.87265	-87.02938	-2.40396	0	0	17.91525	15.94658	-7.23669	-28.76769	6.16623	0	0	-23.42384	-6.84213	18.30836	-11.75459	-22.58684	-4.70245	78.06324	120.26725	-24.85075	-6.63596	-10.82469	73.68425	109.70294
0.42509	5.04081	-7.4161	6.54117	1.79262	0.94576	0.79327	-7.44329	-18.45565	-2.39888	-93.35411	-1.09003	0	0	18.17367	20.65593	-5.1895	-34.34647	8.52703	0	0	-25.03881	-10.17194	13.76959	-11.61889	-20.93176	-5.27503	74.11382	120.10949	-21.58533	-7.68687	-9.65529	72.99883	108.7355
0.43975	7.89487	-4.91758	6.10856	1.82808	0.9377	0.79461	-2.99064	-21.43199	-1.30355	-98.57362	0.0172	0	0	18.01887	24.14054	-3.51831	-38.53924	10.92072	0	0	-26.00816	-12.61716	9.81388	-11.56657	-19.15778	-5.72914	69.41166	119.76888	-17.95899	-8.98817	-7.9122	71.75696	107.81149
0.45441	9.63083	-3.42816	5.4001	1.86448	0.9327	0.79554	2.83187	-22.73253	1.55364	-102.4822	0.78582	0	0	17.07393	25.70136	-3.26103	-40.70069	14.1439	0	0	-26.1626	-14.11402	7.35526	-12.10053	-17.64682	-6.2261	64.95307	119.08067	-14.16035	-10.21683	-6.02222	70.33454	108.12846
0.46907	10.62654	-2.9766	5.22115	1.90178	0.93115	0.79471	8.47752	-22.49108	5.02835	-104.72608	1.54843	0	0	14.64105	25.57279	-3.80259	-41.36027	17.68127	0	0	-26.408	-14.51253	5.86851	-13.26098	-16.78614	-6.65158	61.96908	118.31509	-10.9803	-11.05548	-4.64112	70.04016	110.06228
0.48372	11.53223	-3.41817	5.41335	1.93945	0.93255	0.79156	13.38767	-21.08503	7.88653	-105.19887	2.37391	0	0	10.90916	24.33568	-4.24865	-40.72722	20.89621	0	0	-26.8146	-13.84054	4.56862	-14.94489	-16.5196	-6.97272	60.95212	118.13731	-8.908	-11.51224	-3.83137	71.46544	112.47796
0.49838	12.85012	-4.27151	5.40638	1.97725	0.93676	0.78639	17.81096	-19.26308	9.50756	-104.02333	2.83608	0	0	6.67829	22.80898	-3.6557	-39.05611	22.72285	0	0	-27.05438	-12.59739	2.8114	-16.77059	-16.44503	-7.19348	61.21683	119.0409	-7.69299	-11.89439	-3.53225	73.93987	114.90466
0.51304	14.56389	-5.23105	4.67692	2.01561	0.94243	0.77945	22.17196	-17.47625	10.06471	-101.34069	2.89548	0	0	2.90994	21.40432	-1.62242	-36.89767	22.94895	0	0	-26.48257	-11.10982	0.68598	-18.6902	-16.4747	-7.25551	62.11878	120.87461	-7.15493	-12.48034	-3.22509	77.04492	115.95229
0.5277	16.76336	-6.57771	3.3106	2.05468	0.94918	0.77086	26.10307	-15.57338	9.37018	-97.19809	3.03411	0	0	-0.31263	19.46255	1.12641	-34.63315	21.94492	0	0	-25.16617	-9.08052	-1.70968	-20.61017	-16.59117	-7.10648	63.20296	122.54788	-7.11082	-13.24518	-2.83889	80.2709	116.24393
0.54236	19.06099	-8.26218	1.85429	2.09469	0.95751	0.76075	29.05658	-13.52827	7.95309	-91.4982	3.23245	0	0	-3.46393	16.86962	3.86739	-32.04718	19.73394	0	0	-23.59003	-6.65004	-3.98214	-22.4424	-16.82838	-6.79509	64.19234	123.59764	-7.37604	-13.97142	-2.45507	83.23922	116.40243
0.55702	21.29102	-10.07021	0.49126	2.13552	0.96695	0.74942	31.00104	-11.56797	6.15711	-84.42135	3.4034	0	0	-6.41626	13.82655	5.90347	-29.46716	16.31124	0	0	-21.98838	-4.10844	-6.02299	-24.19108	-17.04832	-6.57784	65.02163	123.54008	-7.85541	-14.70653	-2.00006	85.9882	116.66856
0.57167	23.48067	-11.84716	-0.77657	2.17713	0.97706	0.7373	31.96673	-9.81632	4.07827	-76.07878	3.4225	0	0	-9.06568	10.56724	7.16725	-27.10299	11.69144	0	0	-20.41586	-1.63766	-7.85753	-25.87247	-17.02424	-6.87087	65.7036	123.29899	-8.42159	-15.4286	-1.53923	88.3705	117.19739
0.58633	25.48238	-13.4333	-1.96833	2.21961	0.98703	0.72469	32.13424	-8.30444	1.9915	-66.65297	3.40871	0	0	-11.36986	7.36406	7.62217	-25.0035	6.17355	0	0	-18.82801	0.56554	-9.37165	-27.53931	-16.76223	-7.73477	66.29569	123.02265	-9.08831	-16.16562	-0.92826	90.45086	117.47008
0.60099	27.31266	-14.81499	-2.97414	2.26278	0.99638	0.71156	31.49621	-6.95991	-0.04199	-56.36798	3.40061	0	0	-13.43497	4.36954	7.61687	-23.3322	0.04379	0	0	-17.37917	2.51277	-10.58605	-29.15365	-16.2915	-9.01356	66.84424	122.30395	-9.84194	-16.82615	-0.29542	92.32255	117.81367
0.61565	29.00719	-15.63357	-3.48342	2.30656	1.0046	0.69755	29.94771	-6.14436	-1.97026	-45.75182	3.85618	0	0	-15.62922	2.08027	7.66361	-22.21616	-6.01701	0	0	-16.36826	3.84586	-11.65941	-30.74033	-15.71652	-10.67074	67.64737	121.71125	-10.69445	-17.54271	0.36622	94.13854	118.46026
